{"asset":{"version":"2.0","generator":"babylon.js glTF exporter for 3dsmax 2021 v20210308.2"},"scene":0,"scenes":[{"nodes":[0]}],"nodes":[{"mesh":0,"translation":[-0.239913955,0.44915396,-0.463225633],"name":"Box001"}],"meshes":[{"primitives":[{"attributes":{"POSITION":1,"NORMAL":2,"TEXCOORD_0":3},"indices":0}],"name":"Box001"}],"accessors":[{"bufferView":0,"componentType":5123,"count":36,"type":"SCALAR","name":"accessorIndices"},{"bufferView":1,"componentType":5126,"count":36,"max":[0.662321746,0.44915396,0.7150692],"min":[-0.662321746,-0.44915396,-0.7150692],"type":"VEC3","name":"accessorPositions"},{"bufferView":1,"byteOffset":432,"componentType":5126,"count":36,"type":"VEC3","name":"accessorNormals"},{"bufferView":2,"componentType":5126,"count":36,"type":"VEC2","name":"accessorUVs"},{"bufferView":3,"componentType":5126,"count":75,"max":[3.33333325],"min":[0],"type":"SCALAR","name":"accessorAnimationInput"},{"bufferView":4,"componentType":5126,"count":75,"type":"VEC3","name":"accessorAnimationPositions"},{"bufferView":3,"byteOffset":300,"componentType":5126,"count":58,"max":[3.33333325],"min":[0],"type":"SCALAR","name":"accessorAnimationInput"},{"bufferView":5,"componentType":5126,"count":58,"type":"VEC4","name":"accessorAnimationRotations"}],"bufferViews":[{"buffer":0,"byteLength":72,"name":"bufferViewScalar"},{"buffer":0,"byteOffset":72,"byteLength":864,"byteStride":12,"name":"bufferViewFloatVec3"},{"buffer":0,"byteOffset":936,"byteLength":288,"byteStride":8,"name":"bufferViewFloatVec2"},{"buffer":0,"byteOffset":1224,"byteLength":532,"name":"bufferViewAnimationFloatScalar"},{"buffer":0,"byteOffset":1756,"byteLength":900,"name":"bufferViewAnimationFloatVec3"},{"buffer":0,"byteOffset":2656,"byteLength":928,"name":"bufferViewAnimationFloatVec4"}],"buffers":[{"uri":"data:application/octet-stream;base64,","byteLength":3584}],"animations":[{"channels":[{"sampler":0,"target":{"node":0,"path":"translation"}},{"sampler":1,"target":{"node":0,"path":"rotation"}}],"samplers":[{"input":4,"output":5},{"input":6,"output":7}],"name":"All Animations"}]}